<svg width="42" height="40" viewBox="0 0 42 40" fill="none" xmlns="http://www.w3.org/2000/svg">
<rect x="0.570312" width="40.5234" height="40" fill="#ED1B24"/>
<path d="M17.332 11.6665H24.332C26.9987 11.6665 29.1653 13.8332 29.1653 16.4998V23.4998C29.1653 24.7817 28.6561 26.0111 27.7497 26.9175C26.8432 27.8239 25.6139 28.3332 24.332 28.3332H17.332C14.6653 28.3332 12.4987 26.1665 12.4987 23.4998V16.4998C12.4987 15.218 13.0079 13.9886 13.9143 13.0822C14.8207 12.1757 16.0501 11.6665 17.332 11.6665ZM17.1653 13.3332C16.3697 13.3332 15.6066 13.6492 15.044 14.2119C14.4814 14.7745 14.1653 15.5375 14.1653 16.3332V23.6665C14.1653 25.3248 15.507 26.6665 17.1653 26.6665H24.4987C25.2943 26.6665 26.0574 26.3504 26.62 25.7878C27.1826 25.2252 27.4987 24.4622 27.4987 23.6665V16.3332C27.4987 14.6748 26.157 13.3332 24.4987 13.3332H17.1653ZM25.207 14.5832C25.4833 14.5832 25.7482 14.6929 25.9436 14.8883C26.1389 15.0836 26.2487 15.3486 26.2487 15.6248C26.2487 15.9011 26.1389 16.1661 25.9436 16.3614C25.7482 16.5568 25.4833 16.6665 25.207 16.6665C24.9307 16.6665 24.6658 16.5568 24.4704 16.3614C24.2751 16.1661 24.1653 15.9011 24.1653 15.6248C24.1653 15.3486 24.2751 15.0836 24.4704 14.8883C24.6658 14.6929 24.9307 14.5832 25.207 14.5832ZM20.832 15.8332C21.9371 15.8332 22.9969 16.2722 23.7783 17.0536C24.5597 17.835 24.9987 18.8948 24.9987 19.9998C24.9987 21.1049 24.5597 22.1647 23.7783 22.9461C22.9969 23.7275 21.9371 24.1665 20.832 24.1665C19.7269 24.1665 18.6671 23.7275 17.8857 22.9461C17.1043 22.1647 16.6653 21.1049 16.6653 19.9998C16.6653 18.8948 17.1043 17.835 17.8857 17.0536C18.6671 16.2722 19.7269 15.8332 20.832 15.8332ZM20.832 17.4998C20.1689 17.4998 19.5331 17.7632 19.0642 18.2321C18.5954 18.7009 18.332 19.3368 18.332 19.9998C18.332 20.6629 18.5954 21.2988 19.0642 21.7676C19.5331 22.2364 20.1689 22.4998 20.832 22.4998C21.495 22.4998 22.1309 22.2364 22.5998 21.7676C23.0686 21.2988 23.332 20.6629 23.332 19.9998C23.332 19.3368 23.0686 18.7009 22.5998 18.2321C22.1309 17.7632 21.495 17.4998 20.832 17.4998Z" fill="#EAF9FF"/>
</svg>
