<svg width="41" height="40" viewBox="0 0 41 40" fill="none" xmlns="http://www.w3.org/2000/svg">
<rect x="0.046875" width="40.5234" height="40" fill="#ED1B24"/>
<path d="M16.0919 14.1665C16.0917 14.6086 15.9159 15.0324 15.6031 15.3448C15.2904 15.6572 14.8664 15.8326 14.4244 15.8324C13.9824 15.8321 13.5585 15.6563 13.2461 15.3436C12.9337 15.0309 12.7583 14.6069 12.7585 14.1649C12.7588 13.7228 12.9346 13.299 13.2473 12.9866C13.56 12.6742 13.984 12.4988 14.426 12.499C14.8681 12.4992 15.2919 12.6751 15.6043 12.9878C15.9167 13.3005 16.0921 13.7245 16.0919 14.1665ZM16.1419 17.0665H12.8085V27.4999H16.1419V17.0665ZM21.4085 17.0665H18.0919V27.4999H21.3752V22.0249C21.3752 18.9749 25.3502 18.6915 25.3502 22.0249V27.4999H28.6419V20.8915C28.6419 15.7499 22.7585 15.9415 21.3752 18.4665L21.4085 17.0665Z" fill="#EAF9FF"/>
</svg>
