<svg width="41" height="40" viewBox="0 0 41 40" fill="none" xmlns="http://www.w3.org/2000/svg">
<rect width="40.5234" height="40" fill="#ED1B24"/>
<path d="M29.0925 15.0002C28.4424 15.2918 27.7417 15.4835 27.0157 15.5752C27.7586 15.1335 28.3327 14.4335 28.6028 13.5918C27.9021 14.0085 27.1254 14.3002 26.3065 14.4668C25.6396 13.7502 24.7025 13.3335 23.6387 13.3335C21.6548 13.3335 20.0338 14.9335 20.0338 16.9085C20.0338 17.1918 20.0676 17.4668 20.1267 17.7252C17.1212 17.5752 14.445 16.1502 12.6636 13.9918C12.3512 14.5168 12.174 15.1335 12.174 15.7835C12.174 17.0252 12.8071 18.1252 13.7865 18.7502C13.187 18.7502 12.6298 18.5835 12.1402 18.3335V18.3585C12.1402 20.0918 13.3897 21.5418 15.0444 21.8668C14.5131 22.0103 13.9554 22.0303 13.415 21.9252C13.6443 22.6356 14.0934 23.2572 14.6991 23.7026C15.3048 24.148 16.0367 24.3949 16.7919 24.4085C15.5118 25.4089 13.9249 25.9496 12.2922 25.9418C12.0051 25.9418 11.7181 25.9252 11.431 25.8918C13.0351 26.9085 14.9431 27.5002 16.9861 27.5002C23.6387 27.5002 27.2943 22.0502 27.2943 17.3252C27.2943 17.1668 27.2943 17.0168 27.2858 16.8585C27.995 16.3585 28.6028 15.7252 29.0925 15.0002Z" fill="#EAF9FF"/>
</svg>
