<svg width="458" height="83" viewBox="0 0 458 83" fill="none" xmlns="http://www.w3.org/2000/svg">
<mask id="path-1-outside-1_64_396" maskUnits="userSpaceOnUse" x="-3" y="-3" width="464" height="89" fill="black">
<rect fill="white" x="-3" y="-3" width="464" height="89"/>
<path d="M19.344 82.14C13.34 82.14 8.742 80.43 5.55 77.01C2.434 73.59 0.876 68.764 0.876 62.532V19.668C0.876 13.436 2.434 8.61 5.55 5.19C8.742 1.77 13.34 0.0599957 19.344 0.0599957C25.348 0.0599957 29.908 1.77 33.024 5.19C36.216 8.61 37.812 13.436 37.812 19.668V28.104H25.956V18.87C25.956 13.93 23.866 11.46 19.686 11.46C15.506 11.46 13.416 13.93 13.416 18.87V63.444C13.416 68.308 15.506 70.74 19.686 70.74C23.866 70.74 25.956 68.308 25.956 63.444V51.246H37.812V62.532C37.812 68.764 36.216 73.59 33.024 77.01C29.908 80.43 25.348 82.14 19.344 82.14ZM69.3633 82.14C63.2073 82.14 58.4953 80.392 55.2273 76.896C51.9593 73.4 50.3253 68.46 50.3253 62.076V20.124C50.3253 13.74 51.9593 8.8 55.2273 5.304C58.4953 1.808 63.2073 0.0599957 69.3633 0.0599957C75.5193 0.0599957 80.2313 1.808 83.4993 5.304C86.7673 8.8 88.4013 13.74 88.4013 20.124V62.076C88.4013 68.46 86.7673 73.4 83.4993 76.896C80.2313 80.392 75.5193 82.14 69.3633 82.14ZM69.3633 70.74C73.6953 70.74 75.8613 68.118 75.8613 62.874V19.326C75.8613 14.082 73.6953 11.46 69.3633 11.46C65.0313 11.46 62.8653 14.082 62.8653 19.326V62.874C62.8653 68.118 65.0313 70.74 69.3633 70.74ZM102.582 1.19999H118.314L130.512 48.966H130.74V1.19999H141.912V81H129.03L113.982 22.746H113.754V81H102.582V1.19999ZM166.736 12.6H153.626V1.19999H192.386V12.6H179.276V81H166.736V12.6ZM208.615 1.19999H225.601L238.597 81H226.057L223.777 65.154V65.382H209.527L207.247 81H195.619L208.615 1.19999ZM222.295 54.552L216.709 15.108H216.481L211.009 54.552H222.295ZM267.828 82.14C261.824 82.14 257.226 80.43 254.034 77.01C250.918 73.59 249.36 68.764 249.36 62.532V19.668C249.36 13.436 250.918 8.61 254.034 5.19C257.226 1.77 261.824 0.0599957 267.828 0.0599957C273.832 0.0599957 278.392 1.77 281.508 5.19C284.7 8.61 286.296 13.436 286.296 19.668V28.104H274.44V18.87C274.44 13.93 272.35 11.46 268.17 11.46C263.99 11.46 261.9 13.93 261.9 18.87V63.444C261.9 68.308 263.99 70.74 268.17 70.74C272.35 70.74 274.44 68.308 274.44 63.444V51.246H286.296V62.532C286.296 68.764 284.7 73.59 281.508 77.01C278.392 80.43 273.832 82.14 267.828 82.14ZM309.303 12.6H296.193V1.19999H334.953V12.6H321.843V81H309.303V12.6ZM388.922 82.14C382.842 82.14 378.206 80.43 375.014 77.01C371.822 73.514 370.226 68.536 370.226 62.076V1.19999H382.766V62.988C382.766 65.724 383.298 67.7 384.362 68.916C385.502 70.132 387.098 70.74 389.15 70.74C391.202 70.74 392.76 70.132 393.824 68.916C394.964 67.7 395.534 65.724 395.534 62.988V1.19999H407.618V62.076C407.618 68.536 406.022 73.514 402.83 77.01C399.638 80.43 395.002 82.14 388.922 82.14ZM438.551 82.14C432.471 82.14 427.873 80.43 424.757 77.01C421.641 73.514 420.083 68.536 420.083 62.076V57.516H431.939V62.988C431.939 68.156 434.105 70.74 438.437 70.74C440.565 70.74 442.161 70.132 443.225 68.916C444.365 67.624 444.935 65.572 444.935 62.76C444.935 59.416 444.175 56.49 442.655 53.982C441.135 51.398 438.323 48.32 434.219 44.748C429.051 40.188 425.441 36.084 423.389 32.436C421.337 28.712 420.311 24.532 420.311 19.896C420.311 13.588 421.907 8.724 425.099 5.304C428.291 1.808 432.927 0.0599957 439.007 0.0599957C445.011 0.0599957 449.533 1.808 452.573 5.304C455.689 8.724 457.247 13.664 457.247 20.124V23.43H445.391V19.326C445.391 16.59 444.859 14.614 443.795 13.398C442.731 12.106 441.173 11.46 439.121 11.46C434.941 11.46 432.851 14.006 432.851 19.098C432.851 21.986 433.611 24.684 435.131 27.192C436.727 29.7 439.577 32.74 443.681 36.312C448.925 40.872 452.535 45.014 454.511 48.738C456.487 52.462 457.475 56.832 457.475 61.848C457.475 68.384 455.841 73.4 452.573 76.896C449.381 80.392 444.707 82.14 438.551 82.14Z"/>
</mask>
<path d="M5.55 77.01L3.33241 79.0305L3.34454 79.0438L3.35683 79.057L5.55 77.01ZM5.55 5.19L3.35683 3.14304L3.34454 3.15621L3.33241 3.16953L5.55 5.19ZM33.024 5.19L30.8064 7.21047L30.8185 7.22378L30.8308 7.23695L33.024 5.19ZM37.812 28.104V31.104H40.812V28.104H37.812ZM25.956 28.104H22.956V31.104H25.956V28.104ZM25.956 51.246V48.246H22.956V51.246H25.956ZM37.812 51.246H40.812V48.246H37.812V51.246ZM33.024 77.01L30.8308 74.963L30.8185 74.9762L30.8064 74.9895L33.024 77.01ZM19.344 79.14C13.9221 79.14 10.2175 77.6141 7.74317 74.963L3.35683 79.057C7.26654 83.2459 12.7579 85.14 19.344 85.14V79.14ZM7.76759 74.9895C5.30791 72.2899 3.876 68.2798 3.876 62.532H-2.124C-2.124 69.2482 -0.439907 74.8901 3.33241 79.0305L7.76759 74.9895ZM3.876 62.532V19.668H-2.124V62.532H3.876ZM3.876 19.668C3.876 13.9202 5.30791 9.91012 7.76759 7.21047L3.33241 3.16953C-0.439907 7.30988 -2.124 12.9518 -2.124 19.668H3.876ZM7.74317 7.23695C10.2175 4.58592 13.9221 3.06 19.344 3.06V-2.94C12.7579 -2.94 7.26654 -1.04593 3.35683 3.14304L7.74317 7.23695ZM19.344 3.06C24.7699 3.06 28.4163 4.58714 30.8064 7.21047L35.2416 3.16953C31.3997 -1.04715 25.9261 -2.94 19.344 -2.94V3.06ZM30.8308 7.23695C33.3516 9.93781 34.812 13.9377 34.812 19.668H40.812C40.812 12.9342 39.0804 7.28219 35.2172 3.14304L30.8308 7.23695ZM34.812 19.668V28.104H40.812V19.668H34.812ZM37.812 25.104H25.956V31.104H37.812V25.104ZM28.956 28.104V18.87H22.956V28.104H28.956ZM28.956 18.87C28.956 16.0486 28.3697 13.3732 26.6787 11.3747C24.9064 9.28017 22.3819 8.46 19.686 8.46V14.46C21.1701 14.46 21.7806 14.8748 22.0983 15.2503C22.4973 15.7218 22.956 16.7514 22.956 18.87H28.956ZM19.686 8.46C16.9901 8.46 14.4656 9.28017 12.6933 11.3747C11.0023 13.3732 10.416 16.0486 10.416 18.87H16.416C16.416 16.7514 16.8747 15.7218 17.2737 15.2503C17.5914 14.8748 18.2019 14.46 19.686 14.46V8.46ZM10.416 18.87V63.444H16.416V18.87H10.416ZM10.416 63.444C10.416 66.2365 11.0062 68.8908 12.7082 70.8713C14.485 72.9388 17.0049 73.74 19.686 73.74V67.74C18.1871 67.74 17.572 67.3252 17.2588 66.9607C16.8708 66.5092 16.416 65.5155 16.416 63.444H10.416ZM19.686 73.74C22.3671 73.74 24.887 72.9388 26.6638 70.8713C28.3658 68.8908 28.956 66.2365 28.956 63.444H22.956C22.956 65.5155 22.5012 66.5092 22.1132 66.9607C21.8 67.3252 21.1849 67.74 19.686 67.74V73.74ZM28.956 63.444V51.246H22.956V63.444H28.956ZM25.956 54.246H37.812V48.246H25.956V54.246ZM34.812 51.246V62.532H40.812V51.246H34.812ZM34.812 62.532C34.812 68.2623 33.3516 72.2622 30.8308 74.963L35.2172 79.057C39.0804 74.9178 40.812 69.2657 40.812 62.532H34.812ZM30.8064 74.9895C28.4163 77.6129 24.7699 79.14 19.344 79.14V85.14C25.9261 85.14 31.3997 83.2471 35.2416 79.0305L30.8064 74.9895ZM55.2273 76.896L57.4189 74.8474H57.4189L55.2273 76.896ZM55.2273 5.304L57.4189 7.35265L55.2273 5.304ZM83.4993 5.304L81.3077 7.35265L83.4993 5.304ZM83.4993 76.896L81.3077 74.8474L83.4993 76.896ZM69.3633 79.14C63.7865 79.14 59.968 77.5744 57.4189 74.8474L53.0357 78.9446C57.0225 83.2096 62.6281 85.14 69.3633 85.14V79.14ZM57.4189 74.8474C54.824 72.0715 53.3253 67.9591 53.3253 62.076H47.3253C47.3253 68.9609 49.0945 74.7285 53.0357 78.9446L57.4189 74.8474ZM53.3253 62.076V20.124H47.3253V62.076H53.3253ZM53.3253 20.124C53.3253 14.2409 54.824 10.1285 57.4189 7.35265L53.0357 3.25534C49.0945 7.47149 47.3253 13.2391 47.3253 20.124H53.3253ZM57.4189 7.35265C59.968 4.62564 63.7865 3.06 69.3633 3.06V-2.94C62.6281 -2.94 57.0225 -1.00965 53.0357 3.25534L57.4189 7.35265ZM69.3633 3.06C74.9401 3.06 78.7585 4.62564 81.3077 7.35265L85.6909 3.25534C81.704 -1.00965 76.0985 -2.94 69.3633 -2.94V3.06ZM81.3077 7.35265C83.9025 10.1285 85.4013 14.2409 85.4013 20.124H91.4013C91.4013 13.2391 89.632 7.47149 85.6909 3.25534L81.3077 7.35265ZM85.4013 20.124V62.076H91.4013V20.124H85.4013ZM85.4013 62.076C85.4013 67.9591 83.9025 72.0715 81.3077 74.8474L85.6909 78.9446C89.632 74.7285 91.4013 68.9609 91.4013 62.076H85.4013ZM81.3077 74.8474C78.7585 77.5744 74.9401 79.14 69.3633 79.14V85.14C76.0985 85.14 81.704 83.2096 85.6909 78.9446L81.3077 74.8474ZM69.3633 73.74C72.1587 73.74 74.7469 72.8664 76.5497 70.6841C78.2617 68.6116 78.8613 65.8338 78.8613 62.874H72.8613C72.8613 65.1582 72.3778 66.3134 71.9239 66.8629C71.5606 67.3026 70.8998 67.74 69.3633 67.74V73.74ZM78.8613 62.874V19.326H72.8613V62.874H78.8613ZM78.8613 19.326C78.8613 16.3662 78.2617 13.5884 76.5497 11.5159C74.7469 9.33358 72.1587 8.46 69.3633 8.46V14.46C70.8998 14.46 71.5606 14.8974 71.9239 15.3371C72.3778 15.8866 72.8613 17.0418 72.8613 19.326H78.8613ZM69.3633 8.46C66.5678 8.46 63.9796 9.33358 62.1769 11.5159C60.4648 13.5884 59.8653 16.3662 59.8653 19.326H65.8653C65.8653 17.0418 66.3487 15.8866 66.8027 15.3371C67.1659 14.8974 67.8267 14.46 69.3633 14.46V8.46ZM59.8653 19.326V62.874H65.8653V19.326H59.8653ZM59.8653 62.874C59.8653 65.8338 60.4648 68.6116 62.1769 70.6841C63.9796 72.8664 66.5678 73.74 69.3633 73.74V67.74C67.8267 67.74 67.1659 67.3026 66.8027 66.8629C66.3487 66.3134 65.8653 65.1582 65.8653 62.874H59.8653ZM102.582 1.2V-1.8H99.5818V1.2H102.582ZM118.314 1.2L121.221 0.457706L120.644 -1.8H118.314V1.2ZM130.512 48.966L127.605 49.7083L128.182 51.966H130.512V48.966ZM130.74 48.966V51.966H133.74V48.966H130.74ZM130.74 1.2V-1.8H127.74V1.2H130.74ZM141.912 1.2H144.912V-1.8H141.912V1.2ZM141.912 81V84H144.912V81H141.912ZM129.03 81L126.125 81.7503L126.706 84H129.03V81ZM113.982 22.746L116.886 21.9957L116.305 19.746H113.982V22.746ZM113.754 22.746V19.746H110.754V22.746H113.754ZM113.754 81V84H116.754V81H113.754ZM102.582 81H99.5818V84H102.582V81ZM102.582 4.2H118.314V-1.8H102.582V4.2ZM115.407 1.94228L127.605 49.7083L133.419 48.2237L121.221 0.457706L115.407 1.94228ZM130.512 51.966H130.74V45.966H130.512V51.966ZM133.74 48.966V1.2H127.74V48.966H133.74ZM130.74 4.2H141.912V-1.8H130.74V4.2ZM138.912 1.2V81H144.912V1.2H138.912ZM141.912 78H129.03V84H141.912V78ZM131.934 80.2497L116.886 21.9957L111.077 23.4963L126.125 81.7503L131.934 80.2497ZM113.982 19.746H113.754V25.746H113.982V19.746ZM110.754 22.746V81H116.754V22.746H110.754ZM113.754 78H102.582V84H113.754V78ZM105.582 81V1.2H99.5818V81H105.582ZM166.736 12.6H169.736V9.6H166.736V12.6ZM153.626 12.6H150.626V15.6H153.626V12.6ZM153.626 1.2V-1.8H150.626V1.2H153.626ZM192.386 1.2H195.386V-1.8H192.386V1.2ZM192.386 12.6V15.6H195.386V12.6H192.386ZM179.276 12.6V9.6H176.276V12.6H179.276ZM179.276 81V84H182.276V81H179.276ZM166.736 81H163.736V84H166.736V81ZM166.736 9.6H153.626V15.6H166.736V9.6ZM156.626 12.6V1.2H150.626V12.6H156.626ZM153.626 4.2H192.386V-1.8H153.626V4.2ZM189.386 1.2V12.6H195.386V1.2H189.386ZM192.386 9.6H179.276V15.6H192.386V9.6ZM176.276 12.6V81H182.276V12.6H176.276ZM179.276 78H166.736V84H179.276V78ZM169.736 81V12.6H163.736V81H169.736ZM208.615 1.2V-1.8H206.064L205.654 0.717775L208.615 1.2ZM225.601 1.2L228.562 0.717775L228.152 -1.8H225.601V1.2ZM238.597 81V84H242.125L241.558 80.5178L238.597 81ZM226.057 81L223.088 81.4273L223.458 84H226.057V81ZM223.777 65.154L226.747 64.7267L220.777 65.154H223.777ZM223.777 65.382V68.382H226.777V65.382H223.777ZM209.527 65.382V62.382H206.933L206.559 64.9486L209.527 65.382ZM207.247 81V84H209.841L210.216 81.4334L207.247 81ZM195.619 81L192.658 80.5178L192.091 84H195.619V81ZM222.295 54.552V57.552H225.75L225.266 54.1313L222.295 54.552ZM216.709 15.108L219.68 14.6873L219.314 12.108H216.709V15.108ZM216.481 15.108V12.108H213.869L213.51 14.6958L216.481 15.108ZM211.009 54.552L208.038 54.1398L207.564 57.552H211.009V54.552ZM208.615 4.2H225.601V-1.8H208.615V4.2ZM222.64 1.68221L235.636 81.4822L241.558 80.5178L228.562 0.717775L222.64 1.68221ZM238.597 78H226.057V84H238.597V78ZM229.027 80.5727L226.747 64.7267L220.808 65.5813L223.088 81.4273L229.027 80.5727ZM220.777 65.154V65.382H226.777V65.154H220.777ZM223.777 62.382H209.527V68.382H223.777V62.382ZM206.559 64.9486L204.279 80.5666L210.216 81.4334L212.496 65.8154L206.559 64.9486ZM207.247 78H195.619V84H207.247V78ZM198.58 81.4822L211.576 1.68221L205.654 0.717775L192.658 80.5178L198.58 81.4822ZM225.266 54.1313L219.68 14.6873L213.739 15.5287L219.325 54.9727L225.266 54.1313ZM216.709 12.108H216.481V18.108H216.709V12.108ZM213.51 14.6958L208.038 54.1398L213.981 54.9642L219.453 15.5202L213.51 14.6958ZM211.009 57.552H222.295V51.552H211.009V57.552ZM254.034 77.01L251.817 79.0305L251.829 79.0438L251.841 79.057L254.034 77.01ZM254.034 5.19L251.841 3.14304L251.829 3.15621L251.817 3.16953L254.034 5.19ZM281.508 5.19L279.291 7.21047L279.303 7.22378L279.315 7.23695L281.508 5.19ZM286.296 28.104V31.104H289.296V28.104H286.296ZM274.44 28.104H271.44V31.104H274.44V28.104ZM274.44 51.246V48.246H271.44V51.246H274.44ZM286.296 51.246H289.296V48.246H286.296V51.246ZM281.508 77.01L279.315 74.963L279.303 74.9762L279.291 74.9895L281.508 77.01ZM267.828 79.14C262.406 79.14 258.702 77.6141 256.228 74.963L251.841 79.057C255.751 83.2459 261.242 85.14 267.828 85.14V79.14ZM256.252 74.9895C253.792 72.2899 252.36 68.2798 252.36 62.532H246.36C246.36 69.2482 248.044 74.8901 251.817 79.0305L256.252 74.9895ZM252.36 62.532V19.668H246.36V62.532H252.36ZM252.36 19.668C252.36 13.9202 253.792 9.91012 256.252 7.21047L251.817 3.16953C248.044 7.30988 246.36 12.9518 246.36 19.668H252.36ZM256.228 7.23695C258.702 4.58592 262.406 3.06 267.828 3.06V-2.94C261.242 -2.94 255.751 -1.04593 251.841 3.14304L256.228 7.23695ZM267.828 3.06C273.254 3.06 276.901 4.58714 279.291 7.21047L283.726 3.16953C279.884 -1.04715 274.41 -2.94 267.828 -2.94V3.06ZM279.315 7.23695C281.836 9.93781 283.296 13.9377 283.296 19.668H289.296C289.296 12.9342 287.565 7.28219 283.702 3.14304L279.315 7.23695ZM283.296 19.668V28.104H289.296V19.668H283.296ZM286.296 25.104H274.44V31.104H286.296V25.104ZM277.44 28.104V18.87H271.44V28.104H277.44ZM277.44 18.87C277.44 16.0486 276.854 13.3732 275.163 11.3747C273.391 9.28017 270.866 8.46 268.17 8.46V14.46C269.654 14.46 270.265 14.8748 270.583 15.2503C270.982 15.7218 271.44 16.7514 271.44 18.87H277.44ZM268.17 8.46C265.474 8.46 262.95 9.28017 261.178 11.3747C259.487 13.3732 258.9 16.0486 258.9 18.87H264.9C264.9 16.7514 265.359 15.7218 265.758 15.2503C266.076 14.8748 266.686 14.46 268.17 14.46V8.46ZM258.9 18.87V63.444H264.9V18.87H258.9ZM258.9 63.444C258.9 66.2365 259.491 68.8908 261.193 70.8713C262.969 72.9388 265.489 73.74 268.17 73.74V67.74C266.671 67.74 266.056 67.3252 265.743 66.9607C265.355 66.5092 264.9 65.5155 264.9 63.444H258.9ZM268.17 73.74C270.852 73.74 273.371 72.9388 275.148 70.8713C276.85 68.8908 277.44 66.2365 277.44 63.444H271.44C271.44 65.5155 270.986 66.5092 270.598 66.9607C270.284 67.3252 269.669 67.74 268.17 67.74V73.74ZM277.44 63.444V51.246H271.44V63.444H277.44ZM274.44 54.246H286.296V48.246H274.44V54.246ZM283.296 51.246V62.532H289.296V51.246H283.296ZM283.296 62.532C283.296 68.2623 281.836 72.2622 279.315 74.963L283.702 79.057C287.565 74.9178 289.296 69.2657 289.296 62.532H283.296ZM279.291 74.9895C276.901 77.6129 273.254 79.14 267.828 79.14V85.14C274.41 85.14 279.884 83.2471 283.726 79.0305L279.291 74.9895ZM309.303 12.6H312.303V9.6H309.303V12.6ZM296.193 12.6H293.193V15.6H296.193V12.6ZM296.193 1.2V-1.8H293.193V1.2H296.193ZM334.953 1.2H337.953V-1.8H334.953V1.2ZM334.953 12.6V15.6H337.953V12.6H334.953ZM321.843 12.6V9.6H318.843V12.6H321.843ZM321.843 81V84H324.843V81H321.843ZM309.303 81H306.303V84H309.303V81ZM309.303 9.6H296.193V15.6H309.303V9.6ZM299.193 12.6V1.2H293.193V12.6H299.193ZM296.193 4.2H334.953V-1.8H296.193V4.2ZM331.953 1.2V12.6H337.953V1.2H331.953ZM334.953 9.6H321.843V15.6H334.953V9.6ZM318.843 12.6V81H324.843V12.6H318.843ZM321.843 78H309.303V84H321.843V78ZM312.303 81V12.6H306.303V81H312.303ZM375.014 77.01L372.799 79.0328L372.81 79.0449L372.821 79.057L375.014 77.01ZM370.226 1.2V-1.8H367.226V1.2H370.226ZM382.766 1.2H385.766V-1.8H382.766V1.2ZM384.362 68.916L382.104 70.8915L382.138 70.9303L382.174 70.9678L384.362 68.916ZM393.824 68.916L391.636 66.8642L391.6 66.9017L391.566 66.9405L393.824 68.916ZM395.534 1.2V-1.8H392.534V1.2H395.534ZM407.618 1.2H410.618V-1.8H407.618V1.2ZM402.83 77.01L405.023 79.057L405.035 79.0449L405.046 79.0328L402.83 77.01ZM388.922 79.14C383.411 79.14 379.675 77.6066 377.207 74.963L372.821 79.057C376.738 83.2534 382.273 85.14 388.922 85.14V79.14ZM377.23 74.9872C374.702 72.2185 373.226 68.0633 373.226 62.076H367.226C367.226 69.0087 368.943 74.8095 372.799 79.0328L377.23 74.9872ZM373.226 62.076V1.2H367.226V62.076H373.226ZM370.226 4.2H382.766V-1.8H370.226V4.2ZM379.766 1.2V62.988H385.766V1.2H379.766ZM379.766 62.988C379.766 65.9865 380.326 68.8588 382.104 70.8915L386.62 66.9405C386.271 66.5412 385.766 65.4615 385.766 62.988H379.766ZM382.174 70.9678C384.007 72.924 386.475 73.74 389.15 73.74V67.74C387.722 67.74 386.997 67.34 386.551 66.8642L382.174 70.9678ZM389.15 73.74C391.817 73.74 394.302 72.9261 396.082 70.8915L391.566 66.9405C391.219 67.3379 390.588 67.74 389.15 67.74V73.74ZM396.013 70.9678C397.921 68.9322 398.534 66.0252 398.534 62.988H392.534C392.534 65.4228 392.007 66.4678 391.636 66.8642L396.013 70.9678ZM398.534 62.988V1.2H392.534V62.988H398.534ZM395.534 4.2H407.618V-1.8H395.534V4.2ZM404.618 1.2V62.076H410.618V1.2H404.618ZM404.618 62.076C404.618 68.0633 403.143 72.2185 400.615 74.9872L405.046 79.0328C408.902 74.8095 410.618 69.0087 410.618 62.076H404.618ZM400.637 74.963C398.17 77.6066 394.433 79.14 388.922 79.14V85.14C395.571 85.14 401.107 83.2534 405.023 79.057L400.637 74.963ZM424.757 77.01L422.518 79.0061L422.529 79.0183L422.54 79.0305L424.757 77.01ZM420.083 57.516V54.516H417.083V57.516H420.083ZM431.939 57.516H434.939V54.516H431.939V57.516ZM443.225 68.916L440.976 66.9311L440.968 66.9405L443.225 68.916ZM442.655 53.982L440.07 55.5031L440.08 55.5201L440.09 55.5369L442.655 53.982ZM434.219 44.748L432.235 46.9975L432.242 47.0042L432.25 47.0109L434.219 44.748ZM423.389 32.436L420.762 33.8838L420.768 33.8953L420.775 33.9068L423.389 32.436ZM425.099 5.304L427.293 7.35095L427.304 7.33894L427.315 7.32681L425.099 5.304ZM452.573 5.304L450.31 7.27253L450.332 7.29877L450.356 7.32447L452.573 5.304ZM457.247 23.43V26.43H460.247V23.43H457.247ZM445.391 23.43H442.391V26.43H445.391V23.43ZM443.795 13.398L441.48 15.3051L441.508 15.3397L441.538 15.3735L443.795 13.398ZM435.131 27.192L432.566 28.7469L432.583 28.775L432.6 28.8026L435.131 27.192ZM443.681 36.312L441.712 38.5749L441.713 38.5758L443.681 36.312ZM454.511 48.738L451.861 50.1441L454.511 48.738ZM452.573 76.896L450.382 74.8474L450.37 74.8602L450.358 74.8732L452.573 76.896ZM438.551 79.14C433.036 79.14 429.358 77.6052 426.975 74.9895L422.54 79.0305C426.389 83.2548 431.907 85.14 438.551 85.14V79.14ZM426.997 75.0139C424.53 72.2458 423.083 68.0801 423.083 62.076H417.083C417.083 68.9919 418.753 74.7822 422.518 79.0061L426.997 75.0139ZM423.083 62.076V57.516H417.083V62.076H423.083ZM420.083 60.516H431.939V54.516H420.083V60.516ZM428.939 57.516V62.988H434.939V57.516H428.939ZM428.939 62.988C428.939 65.918 429.542 68.6744 431.265 70.7292C433.072 72.8854 435.656 73.74 438.437 73.74V67.74C436.886 67.74 436.222 67.3026 435.863 66.8748C435.419 66.3456 434.939 65.226 434.939 62.988H428.939ZM438.437 73.74C441.14 73.74 443.682 72.9494 445.483 70.8915L440.968 66.9405C440.64 67.3146 439.991 67.74 438.437 67.74V73.74ZM445.475 70.9009C447.324 68.8056 447.935 65.87 447.935 62.76H441.935C441.935 65.274 441.407 66.4424 440.976 66.9311L445.475 70.9009ZM447.935 62.76C447.935 58.9463 447.063 55.4669 445.221 52.4271L440.09 55.5369C441.288 57.5131 441.935 59.8857 441.935 62.76H447.935ZM445.241 52.4609C443.474 49.4573 440.372 46.1261 436.189 42.4851L432.25 47.0109C436.275 50.5139 438.796 53.3387 440.07 55.5031L445.241 52.4609ZM436.204 42.4985C431.147 38.0364 427.819 34.1919 426.004 30.9652L420.775 33.9068C423.064 37.9761 426.956 42.3395 432.235 46.9975L436.204 42.4985ZM426.017 30.9882C424.231 27.747 423.311 24.0726 423.311 19.896H417.311C417.311 24.9914 418.444 29.677 420.762 33.8838L426.017 30.9882ZM423.311 19.896C423.311 14.0783 424.778 10.0456 427.293 7.35095L422.906 3.25704C419.037 7.40244 417.311 13.0977 417.311 19.896H423.311ZM427.315 7.32681C429.787 4.6193 433.516 3.06 439.007 3.06V-2.94C432.339 -2.94 426.796 -1.00331 422.884 3.28119L427.315 7.32681ZM439.007 3.06C444.417 3.06 447.998 4.61372 450.31 7.27253L454.837 3.33546C451.069 -0.997732 445.605 -2.94 439.007 -2.94V3.06ZM450.356 7.32447C452.799 10.0061 454.247 14.1147 454.247 20.124H460.247C460.247 13.2133 458.58 7.44193 454.791 3.28353L450.356 7.32447ZM454.247 20.124V23.43H460.247V20.124H454.247ZM457.247 20.43H445.391V26.43H457.247V20.43ZM448.391 23.43V19.326H442.391V23.43H448.391ZM448.391 19.326C448.391 16.3275 447.832 13.4552 446.053 11.4225L441.538 15.3735C441.887 15.7728 442.391 16.8525 442.391 19.326H448.391ZM446.111 11.4909C444.35 9.35177 441.847 8.46 439.121 8.46V14.46C440.499 14.46 441.113 14.8602 441.48 15.3051L446.111 11.4909ZM439.121 8.46C436.396 8.46 433.863 9.31877 432.1 11.466C430.43 13.4999 429.851 16.2176 429.851 19.098H435.851C435.851 16.8864 436.317 15.7851 436.738 15.273C437.065 14.8742 437.667 14.46 439.121 14.46V8.46ZM429.851 19.098C429.851 22.5431 430.766 25.7777 432.566 28.7469L437.697 25.6371C436.457 23.5903 435.851 21.4289 435.851 19.098H429.851ZM432.6 28.8026C434.43 31.6775 437.539 34.9428 441.712 38.5749L445.651 34.0491C441.616 30.5372 439.025 27.7225 437.662 25.5814L432.6 28.8026ZM441.713 38.5758C446.835 43.0303 450.134 46.8887 451.861 50.1441L457.161 47.3318C454.937 43.1393 451.015 38.7137 445.65 34.0482L441.713 38.5758ZM451.861 50.1441C453.568 53.3599 454.475 57.2295 454.475 61.848H460.475C460.475 56.4345 459.407 51.5641 457.161 47.3318L451.861 50.1441ZM454.475 61.848C454.475 67.9054 452.965 72.0836 450.382 74.8474L454.765 78.9446C458.717 74.7164 460.475 68.8626 460.475 61.848H454.475ZM450.358 74.8732C447.893 77.5731 444.132 79.14 438.551 79.14V85.14C445.283 85.14 450.87 83.2109 454.789 78.9188L450.358 74.8732Z" fill="#FF778F" fill-opacity="0.32" mask="url(#path-1-outside-1_64_396)"/>
</svg>
