<svg width="231" height="89" viewBox="0 0 231 89" fill="none" xmlns="http://www.w3.org/2000/svg">
<mask id="path-1-outside-1_13156_845" maskUnits="userSpaceOnUse" x="-3" y="-3" width="237" height="95" fill="black">
<rect fill="white" x="-3" y="-3" width="237" height="95"/>
<path d="M0.674 1.19999H33.848V12.6H13.214V34.83H29.402V46.23H13.214V81H0.674V1.19999ZM51.5777 1.19999H68.5637L81.5597 81H69.0197L66.7397 65.154V65.382H52.4897L50.2097 81H38.5817L51.5777 1.19999ZM65.2577 54.552L59.6717 15.108H59.4437L53.9717 54.552H65.2577ZM130.057 88.41C124.357 88.41 120.861 85.864 119.569 80.772C117.213 81.684 114.439 82.14 111.247 82.14C105.091 82.14 100.379 80.392 97.1109 76.896C93.8429 73.4 92.2089 68.46 92.2089 62.076V20.124C92.2089 13.74 93.8429 8.8 97.1109 5.304C100.379 1.808 105.091 0.0599957 111.247 0.0599957C117.403 0.0599957 122.115 1.808 125.383 5.304C128.651 8.8 130.285 13.74 130.285 20.124V62.076C130.285 67.396 129.107 71.766 126.751 75.186C127.207 75.946 127.777 76.44 128.461 76.668C129.145 76.896 130.133 77.01 131.425 77.01H133.363V88.41H130.057ZM111.247 70.74C115.579 70.74 117.745 68.118 117.745 62.874V19.326C117.745 14.082 115.579 11.46 111.247 11.46C106.915 11.46 104.749 14.082 104.749 19.326V62.874C104.749 68.118 106.915 70.74 111.247 70.74ZM168.423 16.134L175.377 1.19999H181.191L176.403 14.88H180.507V26.964H168.423V16.134ZM211.912 82.14C205.832 82.14 201.234 80.43 198.118 77.01C195.002 73.514 193.444 68.536 193.444 62.076V57.516H205.3V62.988C205.3 68.156 207.466 70.74 211.798 70.74C213.926 70.74 215.522 70.132 216.586 68.916C217.726 67.624 218.296 65.572 218.296 62.76C218.296 59.416 217.536 56.49 216.016 53.982C214.496 51.398 211.684 48.32 207.58 44.748C202.412 40.188 198.802 36.084 196.75 32.436C194.698 28.712 193.672 24.532 193.672 19.896C193.672 13.588 195.268 8.724 198.46 5.304C201.652 1.808 206.288 0.0599957 212.368 0.0599957C218.372 0.0599957 222.894 1.808 225.934 5.304C229.05 8.724 230.608 13.664 230.608 20.124V23.43H218.752V19.326C218.752 16.59 218.22 14.614 217.156 13.398C216.092 12.106 214.534 11.46 212.482 11.46C208.302 11.46 206.212 14.006 206.212 19.098C206.212 21.986 206.972 24.684 208.492 27.192C210.088 29.7 212.938 32.74 217.042 36.312C222.286 40.872 225.896 45.014 227.872 48.738C229.848 52.462 230.836 56.832 230.836 61.848C230.836 68.384 229.202 73.4 225.934 76.896C222.742 80.392 218.068 82.14 211.912 82.14Z"/>
</mask>
<path d="M0.674 1.2V-1.8H-2.326V1.2H0.674ZM33.848 1.2H36.848V-1.8H33.848V1.2ZM33.848 12.6V15.6H36.848V12.6H33.848ZM13.214 12.6V9.6H10.214V12.6H13.214ZM13.214 34.83H10.214V37.83H13.214V34.83ZM29.402 34.83H32.402V31.83H29.402V34.83ZM29.402 46.23V49.23H32.402V46.23H29.402ZM13.214 46.23V43.23H10.214V46.23H13.214ZM13.214 81V84H16.214V81H13.214ZM0.674 81H-2.326V84H0.674V81ZM0.674 4.2H33.848V-1.8H0.674V4.2ZM30.848 1.2V12.6H36.848V1.2H30.848ZM33.848 9.6H13.214V15.6H33.848V9.6ZM10.214 12.6V34.83H16.214V12.6H10.214ZM13.214 37.83H29.402V31.83H13.214V37.83ZM26.402 34.83V46.23H32.402V34.83H26.402ZM29.402 43.23H13.214V49.23H29.402V43.23ZM10.214 46.23V81H16.214V46.23H10.214ZM13.214 78H0.674V84H13.214V78ZM3.674 81V1.2H-2.326V81H3.674ZM51.5777 1.2V-1.8H49.0267L48.6167 0.717775L51.5777 1.2ZM68.5637 1.2L71.5247 0.717775L71.1146 -1.8H68.5637V1.2ZM81.5597 81V84H85.0878L84.5207 80.5178L81.5597 81ZM69.0197 81L66.0503 81.4273L66.4204 84H69.0197V81ZM66.7397 65.154L69.7091 64.7267L63.7397 65.154H66.7397ZM66.7397 65.382V68.382H69.7397V65.382H66.7397ZM52.4897 65.382V62.382H49.8958L49.5211 64.9486L52.4897 65.382ZM50.2097 81V84H52.8035L53.1782 81.4334L50.2097 81ZM38.5817 81L35.6207 80.5178L35.0536 84H38.5817V81ZM65.2577 54.552V57.552H68.7125L68.228 54.1313L65.2577 54.552ZM59.6717 15.108L62.642 14.6873L62.2768 12.108H59.6717V15.108ZM59.4437 15.108V12.108H56.8311L56.4721 14.6958L59.4437 15.108ZM53.9717 54.552L51.0001 54.1398L50.5268 57.552H53.9717V54.552ZM51.5777 4.2H68.5637V-1.8H51.5777V4.2ZM65.6027 1.68221L78.5987 81.4822L84.5207 80.5178L71.5247 0.717775L65.6027 1.68221ZM81.5597 78H69.0197V84H81.5597V78ZM71.9891 80.5727L69.7091 64.7267L63.7703 65.5813L66.0503 81.4273L71.9891 80.5727ZM63.7397 65.154V65.382H69.7397V65.154H63.7397ZM66.7397 62.382H52.4897V68.382H66.7397V62.382ZM49.5211 64.9486L47.2411 80.5666L53.1782 81.4334L55.4582 65.8154L49.5211 64.9486ZM50.2097 78H38.5817V84H50.2097V78ZM41.5427 81.4822L54.5387 1.68221L48.6167 0.717775L35.6207 80.5178L41.5427 81.4822ZM68.228 54.1313L62.642 14.6873L56.7013 15.5287L62.2873 54.9727L68.228 54.1313ZM59.6717 12.108H59.4437V18.108H59.6717V12.108ZM56.4721 14.6958L51.0001 54.1398L56.9432 54.9642L62.4152 15.5202L56.4721 14.6958ZM53.9717 57.552H65.2577V51.552H53.9717V57.552ZM119.569 80.772L122.477 80.0342L121.644 76.7518L118.486 77.9743L119.569 80.772ZM97.1109 76.896L99.3025 74.8474L97.1109 76.896ZM97.1109 5.304L99.3025 7.35265L97.1109 5.304ZM125.383 5.304L123.191 7.35265H123.191L125.383 5.304ZM126.751 75.186L124.28 73.4841L123.185 75.074L124.178 76.7295L126.751 75.186ZM128.461 76.668L129.41 73.822L128.461 76.668ZM133.363 77.01H136.363V74.01H133.363V77.01ZM133.363 88.41V91.41H136.363V88.41H133.363ZM130.057 85.41C127.641 85.41 126.02 84.8719 124.926 84.0754C123.858 83.2978 122.989 82.0529 122.477 80.0342L116.661 81.5098C117.441 84.5831 118.966 87.1572 121.394 88.9256C123.796 90.6751 126.773 91.41 130.057 91.41V85.41ZM118.486 77.9743C116.553 78.7225 114.162 79.14 111.247 79.14V85.14C114.716 85.14 117.873 84.6455 120.652 83.5697L118.486 77.9743ZM111.247 79.14C105.67 79.14 101.852 77.5744 99.3025 74.8474L94.9193 78.9446C98.9061 83.2096 104.512 85.14 111.247 85.14V79.14ZM99.3025 74.8474C96.7076 72.0715 95.2089 67.9591 95.2089 62.076H89.2089C89.2089 68.9609 90.9781 74.7285 94.9193 78.9446L99.3025 74.8474ZM95.2089 62.076V20.124H89.2089V62.076H95.2089ZM95.2089 20.124C95.2089 14.2409 96.7076 10.1285 99.3025 7.35265L94.9193 3.25534C90.9781 7.47149 89.2089 13.2391 89.2089 20.124H95.2089ZM99.3025 7.35265C101.852 4.62564 105.67 3.06 111.247 3.06V-2.94C104.512 -2.94 98.9061 -1.00965 94.9193 3.25534L99.3025 7.35265ZM111.247 3.06C116.824 3.06 120.642 4.62564 123.191 7.35265L127.574 3.25534C123.588 -1.00965 117.982 -2.94 111.247 -2.94V3.06ZM123.191 7.35265C125.786 10.1285 127.285 14.2409 127.285 20.124H133.285C133.285 13.2391 131.516 7.47149 127.574 3.25534L123.191 7.35265ZM127.285 20.124V62.076H133.285V20.124H127.285ZM127.285 62.076C127.285 66.9585 126.206 70.6886 124.28 73.4841L129.221 76.8879C132.008 72.8434 133.285 67.8335 133.285 62.076H127.285ZM124.178 76.7295C124.915 77.9574 126.003 79.0109 127.512 79.5141L129.41 73.822C129.43 73.8287 129.449 73.8377 129.466 73.8473C129.483 73.8567 129.489 73.8626 129.485 73.8594C129.477 73.8527 129.416 73.7971 129.323 73.6425L124.178 76.7295ZM127.512 79.514C128.654 79.8946 130.023 80.01 131.425 80.01V74.01C130.243 74.01 129.636 73.8974 129.41 73.822L127.512 79.514ZM131.425 80.01H133.363V74.01H131.425V80.01ZM130.363 77.01V88.41H136.363V77.01H130.363ZM133.363 85.41H130.057V91.41H133.363V85.41ZM111.247 73.74C114.042 73.74 116.631 72.8664 118.433 70.6841C120.145 68.6116 120.745 65.8338 120.745 62.874H114.745C114.745 65.1582 114.261 66.3134 113.807 66.8629C113.444 67.3026 112.783 67.74 111.247 67.74V73.74ZM120.745 62.874V19.326H114.745V62.874H120.745ZM120.745 19.326C120.745 16.3662 120.145 13.5884 118.433 11.5159C116.631 9.33358 114.042 8.46 111.247 8.46V14.46C112.783 14.46 113.444 14.8974 113.807 15.3371C114.261 15.8866 114.745 17.0418 114.745 19.326H120.745ZM111.247 8.46C108.451 8.46 105.863 9.33358 104.06 11.5159C102.348 13.5884 101.749 16.3662 101.749 19.326H107.749C107.749 17.0418 108.232 15.8866 108.686 15.3371C109.05 14.8974 109.71 14.46 111.247 14.46V8.46ZM101.749 19.326V62.874H107.749V19.326H101.749ZM101.749 62.874C101.749 65.8338 102.348 68.6116 104.06 70.6841C105.863 72.8664 108.451 73.74 111.247 73.74V67.74C109.71 67.74 109.05 67.3026 108.686 66.8629C108.232 66.3134 107.749 65.1582 107.749 62.874H101.749ZM168.423 16.134L165.704 14.8676L165.423 15.4698V16.134H168.423ZM175.377 1.2V-1.8H173.465L172.658 -0.0663872L175.377 1.2ZM181.191 1.2L184.023 2.19105L185.42 -1.8H181.191V1.2ZM176.403 14.88L173.572 13.8889L172.175 17.88H176.403V14.88ZM180.507 14.88H183.507V11.88H180.507V14.88ZM180.507 26.964V29.964H183.507V26.964H180.507ZM168.423 26.964H165.423V29.964H168.423V26.964ZM171.143 17.4004L178.097 2.46638L172.658 -0.0663872L165.704 14.8676L171.143 17.4004ZM175.377 4.2H181.191V-1.8H175.377V4.2ZM178.36 0.208942L173.572 13.8889L179.235 15.871L184.023 2.19105L178.36 0.208942ZM176.403 17.88H180.507V11.88H176.403V17.88ZM177.507 14.88V26.964H183.507V14.88H177.507ZM180.507 23.964H168.423V29.964H180.507V23.964ZM171.423 26.964V16.134H165.423V26.964H171.423ZM198.118 77.01L195.878 79.0061L195.889 79.0183L195.9 79.0305L198.118 77.01ZM193.444 57.516V54.516H190.444V57.516H193.444ZM205.3 57.516H208.3V54.516H205.3V57.516ZM216.586 68.916L214.336 66.9311L214.328 66.9405L216.586 68.916ZM216.016 53.982L213.43 55.5031L213.44 55.5201L213.45 55.5369L216.016 53.982ZM207.58 44.748L205.595 46.9975L205.602 47.0042L205.61 47.0109L207.58 44.748ZM196.75 32.436L194.122 33.8838L194.128 33.8953L194.135 33.9068L196.75 32.436ZM198.46 5.304L200.653 7.35095L200.664 7.33894L200.675 7.32681L198.46 5.304ZM225.934 5.304L223.67 7.27253L223.693 7.29877L223.716 7.32447L225.934 5.304ZM230.608 23.43V26.43H233.608V23.43H230.608ZM218.752 23.43H215.752V26.43H218.752V23.43ZM217.156 13.398L214.84 15.3051L214.868 15.3397L214.898 15.3735L217.156 13.398ZM208.492 27.192L205.926 28.7469L205.943 28.775L205.961 28.8026L208.492 27.192ZM217.042 36.312L215.072 38.5749L215.073 38.5758L217.042 36.312ZM227.872 48.738L225.221 50.1441L227.872 48.738ZM225.934 76.896L223.742 74.8474L223.73 74.8602L223.718 74.8732L225.934 76.896ZM211.912 79.14C206.396 79.14 202.718 77.6052 200.335 74.9895L195.9 79.0305C199.749 83.2548 205.267 85.14 211.912 85.14V79.14ZM200.357 75.0139C197.89 72.2458 196.444 68.0801 196.444 62.076H190.444C190.444 68.9919 192.113 74.7822 195.878 79.0061L200.357 75.0139ZM196.444 62.076V57.516H190.444V62.076H196.444ZM193.444 60.516H205.3V54.516H193.444V60.516ZM202.3 57.516V62.988H208.3V57.516H202.3ZM202.3 62.988C202.3 65.918 202.903 68.6744 204.625 70.7292C206.432 72.8854 209.016 73.74 211.798 73.74V67.74C210.247 67.74 209.582 67.3026 209.223 66.8748C208.78 66.3456 208.3 65.226 208.3 62.988H202.3ZM211.798 73.74C214.5 73.74 217.043 72.9494 218.843 70.8915L214.328 66.9405C214 67.3146 213.351 67.74 211.798 67.74V73.74ZM218.835 70.9009C220.684 68.8056 221.296 65.87 221.296 62.76H215.296C215.296 65.274 214.767 66.4424 214.336 66.9311L218.835 70.9009ZM221.296 62.76C221.296 58.9463 220.423 55.4669 218.581 52.4271L213.45 55.5369C214.648 57.5131 215.296 59.8857 215.296 62.76H221.296ZM218.601 52.4609C216.835 49.4573 213.732 46.1261 209.549 42.4851L205.61 47.0109C209.635 50.5139 212.157 53.3387 213.43 55.5031L218.601 52.4609ZM209.564 42.4985C204.507 38.0364 201.179 34.1919 199.364 30.9652L194.135 33.9068C196.424 37.9761 200.316 42.3395 205.595 46.9975L209.564 42.4985ZM199.377 30.9882C197.591 27.747 196.672 24.0726 196.672 19.896H190.672C190.672 24.9914 191.804 29.677 194.122 33.8838L199.377 30.9882ZM196.672 19.896C196.672 14.0783 198.138 10.0456 200.653 7.35095L196.266 3.25704C192.397 7.40244 190.672 13.0977 190.672 19.896H196.672ZM200.675 7.32681C203.147 4.6193 206.876 3.06 212.368 3.06V-2.94C205.699 -2.94 200.156 -1.00331 196.244 3.28119L200.675 7.32681ZM212.368 3.06C217.778 3.06 221.358 4.61372 223.67 7.27253L228.197 3.33546C224.429 -0.997732 218.966 -2.94 212.368 -2.94V3.06ZM223.716 7.32447C226.159 10.0061 227.608 14.1147 227.608 20.124H233.608C233.608 13.2133 231.94 7.44193 228.151 3.28353L223.716 7.32447ZM227.608 20.124V23.43H233.608V20.124H227.608ZM230.608 20.43H218.752V26.43H230.608V20.43ZM221.752 23.43V19.326H215.752V23.43H221.752ZM221.752 19.326C221.752 16.3275 221.192 13.4552 219.413 11.4225L214.898 15.3735C215.247 15.7728 215.752 16.8525 215.752 19.326H221.752ZM219.471 11.4909C217.71 9.35177 215.208 8.46 212.482 8.46V14.46C213.86 14.46 214.473 14.8602 214.84 15.3051L219.471 11.4909ZM212.482 8.46C209.756 8.46 207.223 9.31877 205.46 11.466C203.791 13.4999 203.212 16.2176 203.212 19.098H209.212C209.212 16.8864 209.677 15.7851 210.098 15.273C210.425 14.8742 211.027 14.46 212.482 14.46V8.46ZM203.212 19.098C203.212 22.5431 204.126 25.7777 205.926 28.7469L211.057 25.6371C209.817 23.5903 209.212 21.4289 209.212 19.098H203.212ZM205.961 28.8026C207.79 31.6775 210.899 34.9428 215.072 38.5749L219.011 34.0491C214.976 30.5372 212.385 27.7225 211.023 25.5814L205.961 28.8026ZM215.073 38.5758C220.196 43.0303 223.494 46.8887 225.221 50.1441L230.522 47.3318C228.297 43.1393 224.375 38.7137 219.01 34.0482L215.073 38.5758ZM225.221 50.1441C226.928 53.3599 227.836 57.2295 227.836 61.848H233.836C233.836 56.4345 232.767 51.5641 230.522 47.3318L225.221 50.1441ZM227.836 61.848C227.836 67.9054 226.326 72.0836 223.742 74.8474L228.125 78.9446C232.078 74.7164 233.836 68.8626 233.836 61.848H227.836ZM223.718 74.8732C221.253 77.5731 217.492 79.14 211.912 79.14V85.14C218.643 85.14 224.23 83.2109 228.149 78.9188L223.718 74.8732Z" fill="#858585" fill-opacity="0.19" mask="url(#path-1-outside-1_13156_845)"/>
</svg>
