<svg width="554" height="83" viewBox="0 0 554 83" fill="none" xmlns="http://www.w3.org/2000/svg">
<mask id="path-1-outside-1_13156_885" maskUnits="userSpaceOnUse" x="-3" y="-3" width="560" height="89" fill="black">
<rect fill="white" x="-3" y="-3" width="560" height="89"/>
<path d="M13.478 12.6H0.368V1.19999H39.128V12.6H26.018V81H13.478V12.6ZM50.8994 1.19999H85.0994V12.6H63.4394V33.69H80.6534V45.09H63.4394V69.6H85.0994V81H50.8994V1.19999ZM114.538 82.14C108.458 82.14 103.86 80.43 100.744 77.01C97.6281 73.514 96.0701 68.536 96.0701 62.076V57.516H107.926V62.988C107.926 68.156 110.092 70.74 114.424 70.74C116.552 70.74 118.148 70.132 119.212 68.916C120.352 67.624 120.922 65.572 120.922 62.76C120.922 59.416 120.162 56.49 118.642 53.982C117.122 51.398 114.31 48.32 110.206 44.748C105.038 40.188 101.428 36.084 99.3761 32.436C97.3241 28.712 96.2981 24.532 96.2981 19.896C96.2981 13.588 97.8941 8.724 101.086 5.304C104.278 1.808 108.914 0.0599957 114.994 0.0599957C120.998 0.0599957 125.52 1.808 128.56 5.304C131.676 8.724 133.234 13.664 133.234 20.124V23.43H121.378V19.326C121.378 16.59 120.846 14.614 119.782 13.398C118.718 12.106 117.16 11.46 115.108 11.46C110.928 11.46 108.838 14.006 108.838 19.098C108.838 21.986 109.598 24.684 111.118 27.192C112.714 29.7 115.564 32.74 119.668 36.312C124.912 40.872 128.522 45.014 130.498 48.738C132.474 52.462 133.462 56.832 133.462 61.848C133.462 68.384 131.828 73.4 128.56 76.896C125.368 80.392 120.694 82.14 114.538 82.14ZM156.156 12.6H143.046V1.19999H181.806V12.6H168.696V81H156.156V12.6ZM193.578 1.19999H206.118V81H193.578V1.19999ZM221.209 1.19999H239.107L247.087 58.314H247.315L255.295 1.19999H273.193V81H261.337V20.58H261.109L251.989 81H241.501L232.381 20.58H232.153V81H221.209V1.19999ZM306.377 82.14C300.221 82.14 295.509 80.392 292.241 76.896C288.973 73.4 287.339 68.46 287.339 62.076V20.124C287.339 13.74 288.973 8.8 292.241 5.304C295.509 1.808 300.221 0.0599957 306.377 0.0599957C312.533 0.0599957 317.245 1.808 320.513 5.304C323.781 8.8 325.415 13.74 325.415 20.124V62.076C325.415 68.46 323.781 73.4 320.513 76.896C317.245 80.392 312.533 82.14 306.377 82.14ZM306.377 70.74C310.709 70.74 312.875 68.118 312.875 62.874V19.326C312.875 14.082 310.709 11.46 306.377 11.46C302.045 11.46 299.879 14.082 299.879 19.326V62.874C299.879 68.118 302.045 70.74 306.377 70.74ZM339.595 1.19999H355.327L367.525 48.966H367.753V1.19999H378.925V81H366.043L350.995 22.746H350.767V81H339.595V1.19999ZM393.946 1.19999H406.486V81H393.946V1.19999ZM431.268 1.19999H448.254L461.25 81H448.71L446.43 65.154V65.382H432.18L429.9 81H418.272L431.268 1.19999ZM444.948 54.552L439.362 15.108H439.134L433.662 54.552H444.948ZM473.033 1.19999H485.573V69.6H506.207V81H473.033V1.19999ZM534.223 82.14C528.143 82.14 523.545 80.43 520.429 77.01C517.313 73.514 515.755 68.536 515.755 62.076V57.516H527.611V62.988C527.611 68.156 529.777 70.74 534.109 70.74C536.237 70.74 537.833 70.132 538.897 68.916C540.037 67.624 540.607 65.572 540.607 62.76C540.607 59.416 539.847 56.49 538.327 53.982C536.807 51.398 533.995 48.32 529.891 44.748C524.723 40.188 521.113 36.084 519.061 32.436C517.009 28.712 515.983 24.532 515.983 19.896C515.983 13.588 517.579 8.724 520.771 5.304C523.963 1.808 528.599 0.0599957 534.679 0.0599957C540.683 0.0599957 545.205 1.808 548.245 5.304C551.361 8.724 552.919 13.664 552.919 20.124V23.43H541.063V19.326C541.063 16.59 540.531 14.614 539.467 13.398C538.403 12.106 536.845 11.46 534.793 11.46C530.613 11.46 528.523 14.006 528.523 19.098C528.523 21.986 529.283 24.684 530.803 27.192C532.399 29.7 535.249 32.74 539.353 36.312C544.597 40.872 548.207 45.014 550.183 48.738C552.159 52.462 553.147 56.832 553.147 61.848C553.147 68.384 551.513 73.4 548.245 76.896C545.053 80.392 540.379 82.14 534.223 82.14Z"/>
</mask>
<path d="M13.478 12.6H16.478V9.6H13.478V12.6ZM0.368 12.6H-2.632V15.6H0.368V12.6ZM0.368 1.2V-1.8H-2.632V1.2H0.368ZM39.128 1.2H42.128V-1.8H39.128V1.2ZM39.128 12.6V15.6H42.128V12.6H39.128ZM26.018 12.6V9.6H23.018V12.6H26.018ZM26.018 81V84H29.018V81H26.018ZM13.478 81H10.478V84H13.478V81ZM13.478 9.6H0.368V15.6H13.478V9.6ZM3.368 12.6V1.2H-2.632V12.6H3.368ZM0.368 4.2H39.128V-1.8H0.368V4.2ZM36.128 1.2V12.6H42.128V1.2H36.128ZM39.128 9.6H26.018V15.6H39.128V9.6ZM23.018 12.6V81H29.018V12.6H23.018ZM26.018 78H13.478V84H26.018V78ZM16.478 81V12.6H10.478V81H16.478ZM50.8994 1.2V-1.8H47.8994V1.2H50.8994ZM85.0994 1.2H88.0994V-1.8H85.0994V1.2ZM85.0994 12.6V15.6H88.0994V12.6H85.0994ZM63.4394 12.6V9.6H60.4394V12.6H63.4394ZM63.4394 33.69H60.4394V36.69H63.4394V33.69ZM80.6534 33.69H83.6534V30.69H80.6534V33.69ZM80.6534 45.09V48.09H83.6534V45.09H80.6534ZM63.4394 45.09V42.09H60.4394V45.09H63.4394ZM63.4394 69.6H60.4394V72.6H63.4394V69.6ZM85.0994 69.6H88.0994V66.6H85.0994V69.6ZM85.0994 81V84H88.0994V81H85.0994ZM50.8994 81H47.8994V84H50.8994V81ZM50.8994 4.2H85.0994V-1.8H50.8994V4.2ZM82.0994 1.2V12.6H88.0994V1.2H82.0994ZM85.0994 9.6H63.4394V15.6H85.0994V9.6ZM60.4394 12.6V33.69H66.4394V12.6H60.4394ZM63.4394 36.69H80.6534V30.69H63.4394V36.69ZM77.6534 33.69V45.09H83.6534V33.69H77.6534ZM80.6534 42.09H63.4394V48.09H80.6534V42.09ZM60.4394 45.09V69.6H66.4394V45.09H60.4394ZM63.4394 72.6H85.0994V66.6H63.4394V72.6ZM82.0994 69.6V81H88.0994V69.6H82.0994ZM85.0994 78H50.8994V84H85.0994V78ZM53.8994 81V1.2H47.8994V81H53.8994ZM100.744 77.01L98.5046 79.0061L98.5155 79.0183L98.5265 79.0305L100.744 77.01ZM96.0701 57.516V54.516H93.0701V57.516H96.0701ZM107.926 57.516H110.926V54.516H107.926V57.516ZM119.212 68.916L116.963 66.9311L116.954 66.9405L119.212 68.916ZM118.642 53.982L116.056 55.5031L116.066 55.5201L116.077 55.5369L118.642 53.982ZM110.206 44.748L108.221 46.9975L108.229 47.0042L108.237 47.0109L110.206 44.748ZM99.3761 32.436L96.7486 33.8838L96.7549 33.8953L96.7614 33.9068L99.3761 32.436ZM101.086 5.304L103.279 7.35095L103.29 7.33894L103.302 7.32681L101.086 5.304ZM128.56 5.304L126.296 7.27253L126.319 7.29877L126.343 7.32447L128.56 5.304ZM133.234 23.43V26.43H136.234V23.43H133.234ZM121.378 23.43H118.378V26.43H121.378V23.43ZM119.782 13.398L117.466 15.3051L117.495 15.3397L117.524 15.3735L119.782 13.398ZM111.118 27.192L108.553 28.7469L108.57 28.775L108.587 28.8026L111.118 27.192ZM119.668 36.312L117.699 38.5749L117.7 38.5758L119.668 36.312ZM130.498 48.738L127.848 50.1441L130.498 48.738ZM128.56 76.896L126.369 74.8474L126.357 74.8602L126.345 74.8732L128.56 76.896ZM114.538 79.14C109.023 79.14 105.345 77.6052 102.962 74.9895L98.5265 79.0305C102.375 83.2548 107.894 85.14 114.538 85.14V79.14ZM102.984 75.0139C100.516 72.2458 99.0701 68.0801 99.0701 62.076H93.0701C93.0701 68.9919 94.7398 74.7822 98.5046 79.0061L102.984 75.0139ZM99.0701 62.076V57.516H93.0701V62.076H99.0701ZM96.0701 60.516H107.926V54.516H96.0701V60.516ZM104.926 57.516V62.988H110.926V57.516H104.926ZM104.926 62.988C104.926 65.918 105.529 68.6744 107.252 70.7292C109.059 72.8854 111.643 73.74 114.424 73.74V67.74C112.873 67.74 112.208 67.3026 111.85 66.8748C111.406 66.3456 110.926 65.226 110.926 62.988H104.926ZM114.424 73.74C117.126 73.74 119.669 72.9494 121.47 70.8915L116.954 66.9405C116.627 67.3146 115.978 67.74 114.424 67.74V73.74ZM121.462 70.9009C123.31 68.8056 123.922 65.87 123.922 62.76H117.922C117.922 65.274 117.394 66.4424 116.963 66.9311L121.462 70.9009ZM123.922 62.76C123.922 58.9463 123.05 55.4669 121.208 52.4271L116.077 55.5369C117.274 57.5131 117.922 59.8857 117.922 62.76H123.922ZM121.228 52.4609C119.461 49.4573 116.359 46.1261 112.176 42.4851L108.237 47.0109C112.261 50.5139 114.783 53.3387 116.056 55.5031L121.228 52.4609ZM112.191 42.4985C107.134 38.0364 103.806 34.1919 101.991 30.9652L96.7614 33.9068C99.0504 37.9761 102.942 42.3395 108.221 46.9975L112.191 42.4985ZM102.004 30.9882C100.218 27.747 99.2981 24.0726 99.2981 19.896H93.2981C93.2981 24.9914 94.4306 29.677 96.7486 33.8838L102.004 30.9882ZM99.2981 19.896C99.2981 14.0783 100.764 10.0456 103.279 7.35095L98.8929 3.25704C95.0239 7.40244 93.2981 13.0977 93.2981 19.896H99.2981ZM103.302 7.32681C105.774 4.6193 109.503 3.06 114.994 3.06V-2.94C108.326 -2.94 102.783 -1.00331 98.8707 3.28119L103.302 7.32681ZM114.994 3.06C120.404 3.06 123.984 4.61372 126.296 7.27253L130.824 3.33546C127.056 -0.997732 121.592 -2.94 114.994 -2.94V3.06ZM126.343 7.32447C128.786 10.0061 130.234 14.1147 130.234 20.124H136.234C136.234 13.2133 134.566 7.44193 130.778 3.28353L126.343 7.32447ZM130.234 20.124V23.43H136.234V20.124H130.234ZM133.234 20.43H121.378V26.43H133.234V20.43ZM124.378 23.43V19.326H118.378V23.43H124.378ZM124.378 19.326C124.378 16.3275 123.818 13.4552 122.04 11.4225L117.524 15.3735C117.874 15.7728 118.378 16.8525 118.378 19.326H124.378ZM122.098 11.4909C120.336 9.35177 117.834 8.46 115.108 8.46V14.46C116.486 14.46 117.1 14.8602 117.466 15.3051L122.098 11.4909ZM115.108 8.46C112.382 8.46 109.849 9.31877 108.087 11.466C106.417 13.4999 105.838 16.2176 105.838 19.098H111.838C111.838 16.8864 112.304 15.7851 112.724 15.273C113.052 14.8742 113.654 14.46 115.108 14.46V8.46ZM105.838 19.098C105.838 22.5431 106.753 25.7777 108.553 28.7469L113.684 25.6371C112.443 23.5903 111.838 21.4289 111.838 19.098H105.838ZM108.587 28.8026C110.417 31.6775 113.526 34.9428 117.699 38.5749L121.638 34.0491C117.603 30.5372 115.012 27.7225 113.649 25.5814L108.587 28.8026ZM117.7 38.5758C122.822 43.0303 126.121 46.8887 127.848 50.1441L133.148 47.3318C130.924 43.1393 127.002 38.7137 121.637 34.0482L117.7 38.5758ZM127.848 50.1441C129.554 53.3599 130.462 57.2295 130.462 61.848H136.462C136.462 56.4345 135.394 51.5641 133.148 47.3318L127.848 50.1441ZM130.462 61.848C130.462 67.9054 128.952 72.0836 126.369 74.8474L130.752 78.9446C134.704 74.7164 136.462 68.8626 136.462 61.848H130.462ZM126.345 74.8732C123.879 77.5731 120.119 79.14 114.538 79.14V85.14C121.269 85.14 126.857 83.2109 130.776 78.9188L126.345 74.8732ZM156.156 12.6H159.156V9.6H156.156V12.6ZM143.046 12.6H140.046V15.6H143.046V12.6ZM143.046 1.2V-1.8H140.046V1.2H143.046ZM181.806 1.2H184.806V-1.8H181.806V1.2ZM181.806 12.6V15.6H184.806V12.6H181.806ZM168.696 12.6V9.6H165.696V12.6H168.696ZM168.696 81V84H171.696V81H168.696ZM156.156 81H153.156V84H156.156V81ZM156.156 9.6H143.046V15.6H156.156V9.6ZM146.046 12.6V1.2H140.046V12.6H146.046ZM143.046 4.2H181.806V-1.8H143.046V4.2ZM178.806 1.2V12.6H184.806V1.2H178.806ZM181.806 9.6H168.696V15.6H181.806V9.6ZM165.696 12.6V81H171.696V12.6H165.696ZM168.696 78H156.156V84H168.696V78ZM159.156 81V12.6H153.156V81H159.156ZM193.578 1.2V-1.8H190.578V1.2H193.578ZM206.118 1.2H209.118V-1.8H206.118V1.2ZM206.118 81V84H209.118V81H206.118ZM193.578 81H190.578V84H193.578V81ZM193.578 4.2H206.118V-1.8H193.578V4.2ZM203.118 1.2V81H209.118V1.2H203.118ZM206.118 78H193.578V84H206.118V78ZM196.578 81V1.2H190.578V81H196.578ZM221.209 1.2V-1.8H218.209V1.2H221.209ZM239.107 1.2L242.078 0.784866L241.717 -1.8H239.107V1.2ZM247.087 58.314L244.116 58.7291L244.477 61.314H247.087V58.314ZM247.315 58.314V61.314H249.925L250.286 58.7291L247.315 58.314ZM255.295 1.2V-1.8H252.685L252.324 0.784866L255.295 1.2ZM273.193 1.2H276.193V-1.8H273.193V1.2ZM273.193 81V84H276.193V81H273.193ZM261.337 81H258.337V84H261.337V81ZM261.337 20.58H264.337V17.58H261.337V20.58ZM261.109 20.58V17.58H258.528L258.143 20.1322L261.109 20.58ZM251.989 81V84H254.57L254.956 81.4478L251.989 81ZM241.501 81L238.535 81.4478L238.92 84H241.501V81ZM232.381 20.58L235.348 20.1322L234.962 17.58H232.381V20.58ZM232.153 20.58V17.58H229.153V20.58H232.153ZM232.153 81V84H235.153V81H232.153ZM221.209 81H218.209V84H221.209V81ZM221.209 4.2H239.107V-1.8H221.209V4.2ZM236.136 1.61512L244.116 58.7291L250.058 57.8989L242.078 0.784866L236.136 1.61512ZM247.087 61.314H247.315V55.314H247.087V61.314ZM250.286 58.7291L258.266 1.61512L252.324 0.784866L244.344 57.8989L250.286 58.7291ZM255.295 4.2H273.193V-1.8H255.295V4.2ZM270.193 1.2V81H276.193V1.2H270.193ZM273.193 78H261.337V84H273.193V78ZM264.337 81V20.58H258.337V81H264.337ZM261.337 17.58H261.109V23.58H261.337V17.58ZM258.143 20.1322L249.023 80.5522L254.956 81.4478L264.076 21.0278L258.143 20.1322ZM251.989 78H241.501V84H251.989V78ZM244.468 80.5522L235.348 20.1322L229.415 21.0278L238.535 81.4478L244.468 80.5522ZM232.381 17.58H232.153V23.58H232.381V17.58ZM229.153 20.58V81H235.153V20.58H229.153ZM232.153 78H221.209V84H232.153V78ZM224.209 81V1.2H218.209V81H224.209ZM292.241 76.896L294.433 74.8474L292.241 76.896ZM292.241 5.304L294.433 7.35265L292.241 5.304ZM320.513 5.304L318.321 7.35265L320.513 5.304ZM320.513 76.896L318.321 74.8474L320.513 76.896ZM306.377 79.14C300.8 79.14 296.982 77.5744 294.433 74.8474L290.049 78.9446C294.036 83.2096 299.642 85.14 306.377 85.14V79.14ZM294.433 74.8474C291.838 72.0715 290.339 67.9591 290.339 62.076H284.339C284.339 68.9609 286.108 74.7285 290.049 78.9446L294.433 74.8474ZM290.339 62.076V20.124H284.339V62.076H290.339ZM290.339 20.124C290.339 14.2409 291.838 10.1285 294.433 7.35265L290.049 3.25534C286.108 7.47149 284.339 13.2391 284.339 20.124H290.339ZM294.433 7.35265C296.982 4.62564 300.8 3.06 306.377 3.06V-2.94C299.642 -2.94 294.036 -1.00965 290.049 3.25534L294.433 7.35265ZM306.377 3.06C311.954 3.06 315.772 4.62564 318.321 7.35265L322.705 3.25534C318.718 -1.00965 313.112 -2.94 306.377 -2.94V3.06ZM318.321 7.35265C320.916 10.1285 322.415 14.2409 322.415 20.124H328.415C328.415 13.2391 326.646 7.47149 322.705 3.25534L318.321 7.35265ZM322.415 20.124V62.076H328.415V20.124H322.415ZM322.415 62.076C322.415 67.9591 320.916 72.0715 318.321 74.8474L322.705 78.9446C326.646 74.7285 328.415 68.9609 328.415 62.076H322.415ZM318.321 74.8474C315.772 77.5744 311.954 79.14 306.377 79.14V85.14C313.112 85.14 318.718 83.2096 322.705 78.9446L318.321 74.8474ZM306.377 73.74C309.172 73.74 311.761 72.8664 313.563 70.6841C315.275 68.6116 315.875 65.8338 315.875 62.874H309.875C309.875 65.1582 309.392 66.3134 308.938 66.8629C308.574 67.3026 307.914 67.74 306.377 67.74V73.74ZM315.875 62.874V19.326H309.875V62.874H315.875ZM315.875 19.326C315.875 16.3662 315.275 13.5884 313.563 11.5159C311.761 9.33358 309.172 8.46 306.377 8.46V14.46C307.914 14.46 308.574 14.8974 308.938 15.3371C309.392 15.8866 309.875 17.0418 309.875 19.326H315.875ZM306.377 8.46C303.582 8.46 300.993 9.33358 299.191 11.5159C297.478 13.5884 296.879 16.3662 296.879 19.326H302.879C302.879 17.0418 303.362 15.8866 303.816 15.3371C304.18 14.8974 304.84 14.46 306.377 14.46V8.46ZM296.879 19.326V62.874H302.879V19.326H296.879ZM296.879 62.874C296.879 65.8338 297.478 68.6116 299.191 70.6841C300.993 72.8664 303.582 73.74 306.377 73.74V67.74C304.84 67.74 304.18 67.3026 303.816 66.8629C303.362 66.3134 302.879 65.1582 302.879 62.874H296.879ZM339.595 1.2V-1.8H336.595V1.2H339.595ZM355.327 1.2L358.234 0.457706L357.658 -1.8H355.327V1.2ZM367.525 48.966L364.619 49.7083L365.195 51.966H367.525V48.966ZM367.753 48.966V51.966H370.753V48.966H367.753ZM367.753 1.2V-1.8H364.753V1.2H367.753ZM378.925 1.2H381.925V-1.8H378.925V1.2ZM378.925 81V84H381.925V81H378.925ZM366.043 81L363.139 81.7503L363.72 84H366.043V81ZM350.995 22.746L353.9 21.9957L353.319 19.746H350.995V22.746ZM350.767 22.746V19.746H347.767V22.746H350.767ZM350.767 81V84H353.767V81H350.767ZM339.595 81H336.595V84H339.595V81ZM339.595 4.2H355.327V-1.8H339.595V4.2ZM352.421 1.94228L364.619 49.7083L370.432 48.2237L358.234 0.457706L352.421 1.94228ZM367.525 51.966H367.753V45.966H367.525V51.966ZM370.753 48.966V1.2H364.753V48.966H370.753ZM367.753 4.2H378.925V-1.8H367.753V4.2ZM375.925 1.2V81H381.925V1.2H375.925ZM378.925 78H366.043V84H378.925V78ZM368.948 80.2497L353.9 21.9957L348.091 23.4963L363.139 81.7503L368.948 80.2497ZM350.995 19.746H350.767V25.746H350.995V19.746ZM347.767 22.746V81H353.767V22.746H347.767ZM350.767 78H339.595V84H350.767V78ZM342.595 81V1.2H336.595V81H342.595ZM393.946 1.2V-1.8H390.946V1.2H393.946ZM406.486 1.2H409.486V-1.8H406.486V1.2ZM406.486 81V84H409.486V81H406.486ZM393.946 81H390.946V84H393.946V81ZM393.946 4.2H406.486V-1.8H393.946V4.2ZM403.486 1.2V81H409.486V1.2H403.486ZM406.486 78H393.946V84H406.486V78ZM396.946 81V1.2H390.946V81H396.946ZM431.268 1.2V-1.8H428.717L428.307 0.717775L431.268 1.2ZM448.254 1.2L451.215 0.717775L450.804 -1.8H448.254V1.2ZM461.25 81V84H464.778L464.211 80.5178L461.25 81ZM448.71 81L445.74 81.4273L446.11 84H448.71V81ZM446.43 65.154L449.399 64.7267L443.43 65.154H446.43ZM446.43 65.382V68.382H449.43V65.382H446.43ZM432.18 65.382V62.382H429.586L429.211 64.9486L432.18 65.382ZM429.9 81V84H432.493L432.868 81.4334L429.9 81ZM418.272 81L415.311 80.5178L414.743 84H418.272V81ZM444.948 54.552V57.552H448.402L447.918 54.1313L444.948 54.552ZM439.362 15.108L442.332 14.6873L441.967 12.108H439.362V15.108ZM439.134 15.108V12.108H436.521L436.162 14.6958L439.134 15.108ZM433.661 54.552L430.69 54.1398L430.217 57.552H433.661V54.552ZM431.268 4.2H448.254V-1.8H431.268V4.2ZM445.293 1.68221L458.289 81.4822L464.211 80.5178L451.215 0.717775L445.293 1.68221ZM461.25 78H448.71V84H461.25V78ZM451.679 80.5727L449.399 64.7267L443.46 65.5813L445.74 81.4273L451.679 80.5727ZM443.43 65.154V65.382H449.43V65.154H443.43ZM446.43 62.382H432.18V68.382H446.43V62.382ZM429.211 64.9486L426.931 80.5666L432.868 81.4334L435.148 65.8154L429.211 64.9486ZM429.9 78H418.272V84H429.9V78ZM421.232 81.4822L434.228 1.68221L428.307 0.717775L415.311 80.5178L421.232 81.4822ZM447.918 54.1313L442.332 14.6873L436.391 15.5287L441.977 54.9727L447.918 54.1313ZM439.362 12.108H439.134V18.108H439.362V12.108ZM436.162 14.6958L430.69 54.1398L436.633 54.9642L442.105 15.5202L436.162 14.6958ZM433.661 57.552H444.948V51.552H433.661V57.552ZM473.033 1.2V-1.8H470.033V1.2H473.033ZM485.573 1.2H488.573V-1.8H485.573V1.2ZM485.573 69.6H482.573V72.6H485.573V69.6ZM506.207 69.6H509.207V66.6H506.207V69.6ZM506.207 81V84H509.207V81H506.207ZM473.033 81H470.033V84H473.033V81ZM473.033 4.2H485.573V-1.8H473.033V4.2ZM482.573 1.2V69.6H488.573V1.2H482.573ZM485.573 72.6H506.207V66.6H485.573V72.6ZM503.207 69.6V81H509.207V69.6H503.207ZM506.207 78H473.033V84H506.207V78ZM476.033 81V1.2H470.033V81H476.033ZM520.429 77.01L518.189 79.0061L518.2 79.0183L518.211 79.0305L520.429 77.01ZM515.755 57.516V54.516H512.755V57.516H515.755ZM527.611 57.516H530.611V54.516H527.611V57.516ZM538.897 68.916L536.647 66.9311L536.639 66.9405L538.897 68.916ZM538.327 53.982L535.741 55.5031L535.751 55.5201L535.761 55.5369L538.327 53.982ZM529.891 44.748L527.906 46.9975L527.914 47.0042L527.921 47.0109L529.891 44.748ZM519.061 32.436L516.433 33.8838L516.44 33.8953L516.446 33.9068L519.061 32.436ZM520.771 5.304L522.964 7.35095L522.975 7.33894L522.986 7.32681L520.771 5.304ZM548.245 5.304L545.981 7.27253L546.004 7.29877L546.027 7.32447L548.245 5.304ZM552.919 23.43V26.43H555.919V23.43H552.919ZM541.063 23.43H538.063V26.43H541.063V23.43ZM539.467 13.398L537.151 15.3051L537.18 15.3397L537.209 15.3735L539.467 13.398ZM530.803 27.192L528.237 28.7469L528.254 28.775L528.272 28.8026L530.803 27.192ZM539.353 36.312L537.383 38.5749L537.384 38.5758L539.353 36.312ZM550.183 48.738L547.533 50.1441L550.183 48.738ZM548.245 76.896L546.053 74.8474L546.041 74.8602L546.029 74.8732L548.245 76.896ZM534.223 79.14C528.708 79.14 525.03 77.6052 522.646 74.9895L518.211 79.0305C522.06 83.2548 527.578 85.14 534.223 85.14V79.14ZM522.668 75.0139C520.201 72.2458 518.755 68.0801 518.755 62.076H512.755C512.755 68.9919 514.425 74.7822 518.189 79.0061L522.668 75.0139ZM518.755 62.076V57.516H512.755V62.076H518.755ZM515.755 60.516H527.611V54.516H515.755V60.516ZM524.611 57.516V62.988H530.611V57.516H524.611ZM524.611 62.988C524.611 65.918 525.214 68.6744 526.936 70.7292C528.744 72.8854 531.328 73.74 534.109 73.74V67.74C532.558 67.74 531.893 67.3026 531.534 66.8748C531.091 66.3456 530.611 65.226 530.611 62.988H524.611ZM534.109 73.74C536.811 73.74 539.354 72.9494 541.155 70.8915L536.639 66.9405C536.312 67.3146 535.663 67.74 534.109 67.74V73.74ZM541.146 70.9009C542.995 68.8056 543.607 65.87 543.607 62.76H537.607C537.607 65.274 537.079 66.4424 536.647 66.9311L541.146 70.9009ZM543.607 62.76C543.607 58.9463 542.735 55.4669 540.892 52.4271L535.761 55.5369C536.959 57.5131 537.607 59.8857 537.607 62.76H543.607ZM540.913 52.4609C539.146 49.4573 536.044 46.1261 531.86 42.4851L527.921 47.0109C531.946 50.5139 534.468 53.3387 535.741 55.5031L540.913 52.4609ZM531.876 42.4985C526.819 38.0364 523.491 34.1919 521.676 30.9652L516.446 33.9068C518.735 37.9761 522.627 42.3395 527.906 46.9975L531.876 42.4985ZM521.688 30.9882C519.902 27.747 518.983 24.0726 518.983 19.896H512.983C512.983 24.9914 514.115 29.677 516.433 33.8838L521.688 30.9882ZM518.983 19.896C518.983 14.0783 520.449 10.0456 522.964 7.35095L518.578 3.25704C514.709 7.40244 512.983 13.0977 512.983 19.896H518.983ZM522.986 7.32681C525.458 4.6193 529.187 3.06 534.679 3.06V-2.94C528.01 -2.94 522.467 -1.00331 518.555 3.28119L522.986 7.32681ZM534.679 3.06C540.089 3.06 543.669 4.61372 545.981 7.27253L550.509 3.33546C546.741 -0.997732 541.277 -2.94 534.679 -2.94V3.06ZM546.027 7.32447C548.471 10.0061 549.919 14.1147 549.919 20.124H555.919C555.919 13.2133 554.251 7.44193 550.462 3.28353L546.027 7.32447ZM549.919 20.124V23.43H555.919V20.124H549.919ZM552.919 20.43H541.063V26.43H552.919V20.43ZM544.063 23.43V19.326H538.063V23.43H544.063ZM544.063 19.326C544.063 16.3275 543.503 13.4552 541.725 11.4225L537.209 15.3735C537.559 15.7728 538.063 16.8525 538.063 19.326H544.063ZM541.783 11.4909C540.021 9.35177 537.519 8.46 534.793 8.46V14.46C536.171 14.46 536.785 14.8602 537.151 15.3051L541.783 11.4909ZM534.793 8.46C532.067 8.46 529.534 9.31877 527.772 11.466C526.102 13.4999 525.523 16.2176 525.523 19.098H531.523C531.523 16.8864 531.989 15.7851 532.409 15.273C532.737 14.8742 533.339 14.46 534.793 14.46V8.46ZM525.523 19.098C525.523 22.5431 526.438 25.7777 528.237 28.7469L533.368 25.6371C532.128 23.5903 531.523 21.4289 531.523 19.098H525.523ZM528.272 28.8026C530.101 31.6775 533.21 34.9428 537.383 38.5749L541.322 34.0491C537.287 30.5372 534.696 27.7225 533.334 25.5814L528.272 28.8026ZM537.384 38.5758C542.507 43.0303 545.805 46.8887 547.533 50.1441L552.833 47.3318C550.608 43.1393 546.687 38.7137 541.321 34.0482L537.384 38.5758ZM547.533 50.1441C549.239 53.3599 550.147 57.2295 550.147 61.848H556.147C556.147 56.4345 555.079 51.5641 552.833 47.3318L547.533 50.1441ZM550.147 61.848C550.147 67.9054 548.637 72.0836 546.053 74.8474L550.436 78.9446C554.389 74.7164 556.147 68.8626 556.147 61.848H550.147ZM546.029 74.8732C543.564 77.5731 539.804 79.14 534.223 79.14V85.14C540.954 85.14 546.542 83.2109 550.46 78.9188L546.029 74.8732Z" fill="#858585" fill-opacity="0.19" mask="url(#path-1-outside-1_13156_885)"/>
</svg>
