<svg width="36" height="36" viewBox="0 0 36 36" fill="none" xmlns="http://www.w3.org/2000/svg">
<path d="M18 3.14722e-06C14.4399 2.52476e-06 10.9598 1.05568 7.99974 3.03355C5.03966 5.01141 2.73255 7.82263 1.37017 11.1117C0.0077968 14.4008 -0.348664 18.02 0.345869 21.5116C1.0404 25.0033 2.75474 28.2106 5.27208 30.7279C7.78942 33.2453 10.9967 34.9596 14.4884 35.6541C17.98 36.3487 21.5992 35.9922 24.8883 34.6298C28.1774 33.2675 30.9886 30.9603 32.9665 28.0003C34.9443 25.0402 36 21.5601 36 18C35.9944 13.2278 34.0962 8.65272 30.7217 5.27828C27.3473 1.90385 22.7722 0.00561897 18 3.14722e-06ZM15.1443 27.0382L13.0226 24.9632L19.8373 18L13.0226 11.0368L15.1443 8.96181L23.9915 18L15.1443 27.0382Z" fill="#EB3223"/>
</svg>
